<svg xmlns="http://www.w3.org/2000/svg" xmlns:xlink="http://www.w3.org/1999/xlink" width="500" zoomAndPan="magnify" viewBox="0 0 375 374.999991" height="500" preserveAspectRatio="xMidYMid meet" version="1.0"><defs><g/><clipPath id="d4c0bf8f94"><path d="M 103.242188 125.851562 L 272.09375 125.851562 L 272.09375 173.058594 L 103.242188 173.058594 Z M 103.242188 125.851562 " clip-rule="nonzero"/></clipPath></defs><g clip-path="url(#d4c0bf8f94)"><path fill="#101010" d="M 261.421875 145.195312 C 258.273438 145.238281 255.320312 146.785156 253.507812 149.367188 C 249.128906 155.546875 249.609375 163.9375 254.644531 169.59375 C 234.453125 168.617188 214.203125 169.113281 194.070312 171.0625 C 197.15625 168.316406 200.605469 166.007812 204.308594 164.175781 C 217.335938 163.816406 230.375 164.144531 243.386719 165.167969 C 230.257812 163.019531 216.976562 162.210938 203.695312 162.75 C 198.386719 165.390625 193.558594 168.871094 189.394531 173.058594 C 212.207031 170.417969 235.1875 169.59375 258.140625 170.582031 C 251.679688 165.871094 250.195312 156.839844 254.8125 150.3125 C 257.433594 146.574219 262.589844 145.6875 266.308594 148.316406 C 267.449219 149.125 268.363281 150.191406 268.960938 151.449219 C 271.433594 158.054688 270.265625 165.464844 265.890625 170.988281 C 271.945312 166.125 273.832031 157.707031 270.417969 150.730469 C 268.753906 147.308594 265.246094 145.148438 261.4375 145.195312 Z M 179.019531 143.828125 C 174.867188 143.828125 170.925781 145.6875 168.285156 148.898438 C 162.980469 155.171875 162.351562 164.175781 166.757812 171.125 C 162.351562 171.183594 158.003906 170.074219 154.164062 167.925781 L 139.382812 158.203125 C 135.9375 155.710938 131.828125 154.289062 127.570312 154.136719 L 103.886719 153.6875 C 103.273438 155.1875 103.453125 156.882812 104.367188 158.203125 C 106.855469 161.519531 109.941406 164.324219 113.464844 166.488281 C 114.15625 166.9375 114.710938 167.566406 115.070312 168.316406 L 103.242188 168.828125 L 117.003906 169.097656 C 116.703125 167.445312 115.730469 166.007812 114.320312 165.121094 C 110.976562 163.066406 108.039062 160.394531 105.6875 157.257812 C 105.296875 156.703125 105.101562 156.011719 105.144531 155.335938 L 127.527344 155.757812 C 131.453125 155.894531 135.261719 157.214844 138.453125 159.539062 L 153.3125 169.308594 C 158.078125 171.992188 163.5625 173.148438 169.003906 172.609375 C 163.128906 164.730469 164.75 153.566406 172.632812 147.683594 C 173.1875 147.265625 173.757812 146.890625 174.355469 146.542969 C 181.148438 144.097656 188.613281 147.640625 191.054688 154.4375 C 191.160156 154.765625 191.28125 155.113281 191.371094 155.457031 C 192.195312 158.324219 192.421875 161.355469 192.015625 164.324219 C 194.640625 157.648438 192.316406 150.054688 186.425781 145.972656 L 186.410156 145.972656 C 184.207031 144.578125 181.640625 143.84375 179.019531 143.828125 Z M 114.289062 140.585938 C 110.601562 140.601562 106.929688 140.648438 103.257812 140.753906 C 120 141.9375 136.777344 142.914062 153.550781 143.648438 C 153.460938 144.503906 152.859375 145.207031 152.050781 145.464844 C 147.417969 146.917969 142.53125 147.324219 137.71875 146.695312 C 126.238281 145.929688 114.710938 146.078125 103.242188 147.160156 C 114.695312 146.964844 126.148438 147.339844 137.554688 148.300781 C 142.578125 148.960938 147.6875 148.523438 152.53125 147.007812 C 154.074219 146.527344 155.140625 145.105469 155.167969 143.484375 L 155.167969 142.164062 C 141.558594 141.082031 127.917969 140.558594 114.261719 140.585938 Z M 190.113281 130.414062 C 173.578125 130.351562 157.132812 132.679688 141.257812 137.332031 C 162.785156 136.550781 184.324219 138.277344 205.449219 142.449219 C 220.226562 146.183594 235.699219 146.320312 250.554688 142.867188 C 256.535156 141.683594 262.757812 143.09375 267.65625 146.738281 C 261.902344 141.441406 253.792969 139.566406 246.3125 141.816406 C 246.132812 141.863281 245.953125 141.90625 245.773438 141.9375 L 245.757812 141.9375 C 232.789062 144.457031 219.449219 144.234375 206.570312 141.277344 C 189.152344 137.660156 171.417969 135.800781 153.640625 135.710938 C 166.277344 132.515625 179.230469 130.742188 192.253906 130.441406 C 191.535156 130.429688 190.816406 130.414062 190.097656 130.414062 Z M 188.179688 125.867188 C 182.796875 125.894531 177.445312 126.375 172.136719 127.277344 C 149.261719 131.492188 126.296875 135.230469 103.257812 138.472656 C 113.765625 138.589844 124.273438 137.796875 134.648438 136.101562 C 147.3125 132.828125 160.160156 130.351562 173.128906 128.671875 C 195.390625 125.476562 218.085938 129.121094 238.214844 139.117188 C 223 130.339844 205.730469 125.761719 188.179688 125.867188 " fill-opacity="1" fill-rule="nonzero"/></g><g fill="#101010" fill-opacity="1"><g transform="translate(58.581021, 208.707891)"><g><path d="M 10.890625 -4.972656 C 10.890625 -3.519531 10.871094 -2.398438 10.097656 -1.355469 C 9.691406 -0.8125 8.917969 -0.210938 7.8125 -0.210938 C 6.558594 -0.210938 5.28125 -1.042969 4.699219 -2.476562 L 4.699219 -7.96875 C 4.699219 -9.824219 5.007812 -10.773438 5.609375 -11.449219 C 6.171875 -12.089844 6.886719 -12.457031 7.796875 -12.457031 C 8.78125 -12.457031 9.59375 -12.011719 10.097656 -11.316406 C 10.695312 -10.503906 10.890625 -9.632812 10.890625 -7.8125 Z M 2.398438 4.71875 L 1.0625 4.71875 L 1.0625 5.125 L 4.699219 5.125 L 4.699219 -1.605469 C 5.300781 -0.582031 6.539062 0.195312 7.910156 0.195312 C 9.417969 0.195312 10.871094 -0.523438 11.800781 -1.566406 C 12.726562 -2.609375 13.191406 -3.945312 13.191406 -5.628906 L 13.191406 -6.984375 C 13.191406 -8.839844 12.785156 -10.039062 11.722656 -11.199219 C 10.734375 -12.261719 9.226562 -12.863281 7.796875 -12.863281 C 5.453125 -12.863281 3.347656 -11.375 2.6875 -9.207031 C 2.457031 -8.472656 2.398438 -7.871094 2.398438 -7.039062 Z M 2.398438 4.71875 "/></g></g></g><g fill="#101010" fill-opacity="1"><g transform="translate(80.201913, 208.707891)"><g><path d="M 4.699219 -12.6875 L 1.0625 -12.6875 L 1.0625 -12.28125 L 2.398438 -12.28125 L 2.398438 -0.40625 L 1.0625 -0.40625 L 1.0625 0 L 6.152344 0 L 6.152344 -0.40625 L 4.699219 -0.40625 L 4.699219 -10.617188 C 5.300781 -11.703125 6.304688 -12.4375 7.097656 -12.4375 C 7.292969 -12.4375 7.425781 -12.398438 7.464844 -12.378906 C 6.847656 -12.300781 6.382812 -11.742188 6.382812 -11.082031 C 6.382812 -10.308594 6.964844 -9.730469 7.738281 -9.730469 C 8.53125 -9.730469 9.109375 -10.347656 9.109375 -11.160156 C 9.109375 -12.128906 8.316406 -12.863281 7.234375 -12.863281 C 6.226562 -12.863281 5.242188 -12.167969 4.699219 -11.296875 Z M 4.699219 -12.6875 "/></g></g></g><g fill="#101010" fill-opacity="1"><g transform="translate(96.389425, 208.707891)"><g><path d="M 12.128906 -6.054688 L 12.128906 -6.945312 C 12.128906 -9.265625 11.507812 -10.445312 10.328125 -11.527344 C 9.402344 -12.378906 7.988281 -12.863281 6.75 -12.863281 C 3.558594 -12.863281 1.355469 -10.464844 1.355469 -7.175781 L 1.355469 -5.628906 C 1.355469 -3.808594 1.761719 -2.609375 2.765625 -1.507812 C 3.714844 -0.484375 5.144531 0.195312 6.867188 0.195312 C 9.128906 0.195312 10.871094 -1.003906 11.914062 -3.289062 L 11.546875 -3.460938 C 10.445312 -1.21875 8.957031 -0.210938 6.925781 -0.210938 C 5.414062 -0.210938 4.46875 -0.929688 4.023438 -2.050781 C 3.695312 -2.882812 3.65625 -3.945312 3.65625 -5.378906 L 3.65625 -6.054688 Z M 9.84375 -6.460938 L 3.65625 -6.460938 L 3.65625 -7.96875 C 3.65625 -9.824219 3.964844 -10.773438 4.566406 -11.449219 C 5.125 -12.089844 5.839844 -12.457031 6.75 -12.457031 C 7.738281 -12.457031 8.550781 -12.011719 9.050781 -11.316406 C 9.652344 -10.503906 9.84375 -9.632812 9.84375 -7.8125 Z M 9.84375 -6.460938 "/></g></g></g><g fill="#101010" fill-opacity="1"><g transform="translate(116.560122, 208.707891)"><g><path d="M 8.589844 -9.882812 L 8.589844 -12.980469 L 8.183594 -12.980469 L 8.183594 -11.488281 C 7.71875 -12.359375 6.808594 -12.863281 5.609375 -12.863281 C 3.597656 -12.863281 1.933594 -11.179688 1.933594 -9.089844 C 1.933594 -4.429688 8.703125 -6.132812 8.703125 -2.804688 C 8.703125 -1.335938 7.40625 -0.210938 5.628906 -0.210938 C 3.636719 -0.210938 2.089844 -1.664062 1.933594 -3.695312 L 1.527344 -3.695312 L 1.527344 0.195312 L 1.933594 0.195312 L 1.933594 -1.933594 C 2.667969 -0.582031 4.023438 0.195312 5.609375 0.195312 C 7.988281 0.195312 9.863281 -1.625 9.863281 -3.886719 C 9.863281 -8.625 3.25 -6.828125 3.25 -10.15625 C 3.25 -11.429688 4.292969 -12.4375 5.6875 -12.4375 C 7.117188 -12.4375 8.085938 -11.46875 8.203125 -9.882812 Z M 8.589844 -9.882812 "/></g></g></g><g fill="#101010" fill-opacity="1"><g transform="translate(134.468528, 208.707891)"><g><path d="M 6.769531 -1.625 C 6.710938 -0.949219 6.265625 -0.523438 5.6875 -0.523438 C 5.164062 -0.523438 4.601562 -0.890625 4.601562 -1.816406 L 4.601562 -12.28125 L 6.789062 -12.28125 L 6.789062 -12.6875 L 4.601562 -12.6875 L 4.601562 -17.796875 L 2.300781 -17.796875 L 2.300781 -12.6875 L 0.96875 -12.6875 L 0.96875 -12.28125 L 2.300781 -12.28125 L 2.300781 -3.171875 C 2.300781 -2.339844 2.378906 -1.644531 2.628906 -1.121094 C 3.074219 -0.210938 3.867188 0.195312 5.085938 0.195312 C 6.304688 0.195312 7.136719 -0.601562 7.195312 -1.625 Z M 6.769531 -1.625 "/></g></g></g><g fill="#101010" fill-opacity="1"><g transform="translate(149.321865, 208.707891)"><g><path d="M 4.894531 -15.878906 C 4.894531 -16.558594 4.332031 -17.117188 3.65625 -17.117188 C 2.980469 -17.117188 2.417969 -16.558594 2.417969 -15.878906 C 2.417969 -15.203125 2.980469 -14.640625 3.65625 -14.640625 C 4.332031 -14.640625 4.894531 -15.203125 4.894531 -15.878906 Z M 6.191406 0 L 6.191406 -0.40625 L 4.894531 -0.40625 L 4.894531 -12.6875 L 1.257812 -12.6875 L 1.257812 -12.28125 L 2.59375 -12.28125 L 2.59375 -0.40625 L 1.257812 -0.40625 L 1.257812 0 Z M 6.191406 0 "/></g></g></g><g fill="#101010" fill-opacity="1"><g transform="translate(163.749815, 208.707891)"><g><path d="M 9.84375 -2.476562 C 9.265625 -1.042969 7.988281 -0.210938 6.730469 -0.210938 C 5.628906 -0.210938 4.855469 -0.8125 4.449219 -1.355469 C 3.675781 -2.398438 3.65625 -3.519531 3.65625 -4.972656 L 3.65625 -7.96875 C 3.65625 -9.824219 3.964844 -10.773438 4.566406 -11.449219 C 5.125 -12.089844 5.839844 -12.457031 6.75 -12.457031 C 7.738281 -12.457031 8.550781 -12.011719 9.050781 -11.316406 C 9.652344 -10.503906 9.84375 -9.632812 9.84375 -7.8125 Z M 12.148438 -6.984375 C 12.148438 -8.839844 11.742188 -10.039062 10.675781 -11.199219 C 9.691406 -12.261719 8.183594 -12.863281 6.75 -12.863281 C 4.410156 -12.863281 2.300781 -11.375 1.644531 -9.207031 C 1.410156 -8.472656 1.355469 -7.871094 1.355469 -7.039062 L 1.355469 -5.628906 C 1.355469 -3.945312 1.816406 -2.609375 2.746094 -1.566406 C 3.675781 -0.523438 5.125 0.195312 6.632812 0.195312 C 8.007812 0.195312 9.265625 -0.582031 9.863281 -1.605469 L 9.863281 0.871094 C 9.863281 2.203125 9.808594 2.59375 9.574219 3.152344 C 9.363281 3.65625 9.03125 4.082031 8.625 4.371094 C 8.144531 4.71875 7.40625 4.933594 6.75 4.933594 C 5.453125 4.933594 4.371094 4.273438 3.945312 3.210938 C 4.179688 3.402344 4.46875 3.480469 4.738281 3.480469 C 5.492188 3.480469 6.035156 2.960938 6.035156 2.1875 C 6.035156 1.449219 5.433594 0.871094 4.71875 0.871094 C 3.925781 0.871094 3.328125 1.546875 3.328125 2.417969 C 3.328125 4.0625 4.835938 5.320312 6.828125 5.320312 C 9.148438 5.320312 11.355469 3.65625 11.875 1.566406 C 12.070312 0.792969 12.148438 -0.117188 12.148438 -1.664062 Z M 12.148438 -6.984375 "/></g></g></g><g fill="#101010" fill-opacity="1"><g transform="translate(184.326565, 208.707891)"><g><path d="M 12.128906 -6.054688 L 12.128906 -6.945312 C 12.128906 -9.265625 11.507812 -10.445312 10.328125 -11.527344 C 9.402344 -12.378906 7.988281 -12.863281 6.75 -12.863281 C 3.558594 -12.863281 1.355469 -10.464844 1.355469 -7.175781 L 1.355469 -5.628906 C 1.355469 -3.808594 1.761719 -2.609375 2.765625 -1.507812 C 3.714844 -0.484375 5.144531 0.195312 6.867188 0.195312 C 9.128906 0.195312 10.871094 -1.003906 11.914062 -3.289062 L 11.546875 -3.460938 C 10.445312 -1.21875 8.957031 -0.210938 6.925781 -0.210938 C 5.414062 -0.210938 4.46875 -0.929688 4.023438 -2.050781 C 3.695312 -2.882812 3.65625 -3.945312 3.65625 -5.378906 L 3.65625 -6.054688 Z M 9.84375 -6.460938 L 3.65625 -6.460938 L 3.65625 -7.96875 C 3.65625 -9.824219 3.964844 -10.773438 4.566406 -11.449219 C 5.125 -12.089844 5.839844 -12.457031 6.75 -12.457031 C 7.738281 -12.457031 8.550781 -12.011719 9.050781 -11.316406 C 9.652344 -10.503906 9.84375 -9.632812 9.84375 -7.8125 Z M 9.84375 -6.460938 "/></g></g></g><g fill="#101010" fill-opacity="1"><g transform="translate(204.497256, 208.707891)"><g><path d="M 18.144531 -12.28125 L 18.144531 -12.6875 L 15.511719 -12.6875 L 15.511719 -12.28125 L 16.539062 -12.28125 L 12.050781 -2.960938 L 10.136719 -7.214844 L 12.59375 -12.28125 L 13.617188 -12.28125 L 13.617188 -12.6875 L 10.949219 -12.6875 L 10.949219 -12.28125 L 12.109375 -12.28125 L 9.902344 -7.71875 L 7.832031 -12.28125 L 9.1875 -12.28125 L 9.1875 -12.6875 L 4.679688 -12.6875 L 4.679688 -12.28125 L 5.433594 -12.28125 L 8.683594 -5.164062 L 7.621094 -2.960938 L 3.386719 -12.28125 L 4.253906 -12.28125 L 4.253906 -12.6875 L 0 -12.6875 L 0 -12.28125 L 0.988281 -12.28125 L 6.632812 0.0976562 L 8.917969 -4.640625 L 11.082031 0.078125 L 17.078125 -12.28125 Z M 18.144531 -12.28125 "/></g></g></g><g fill="#101010" fill-opacity="1"><g transform="translate(229.13453, 208.707891)"><g><path d="M 14.679688 0 L 14.679688 -0.40625 L 13.386719 -0.40625 L 13.386719 -7.039062 C 13.386719 -8.722656 12.921875 -10.058594 11.992188 -11.101562 C 11.0625 -12.148438 9.613281 -12.863281 8.105469 -12.863281 C 6.730469 -12.863281 5.492188 -12.089844 4.894531 -11.0625 L 4.894531 -17.796875 L 1.257812 -17.796875 L 1.257812 -17.390625 L 2.59375 -17.390625 L 2.59375 -0.40625 L 1.257812 -0.40625 L 1.257812 0 L 6.191406 0 L 6.191406 -0.40625 L 4.894531 -0.40625 L 4.894531 -10.195312 C 5.472656 -11.625 6.75 -12.457031 8.007812 -12.457031 C 9.109375 -12.457031 9.882812 -11.855469 10.289062 -11.316406 C 11.0625 -10.269531 11.082031 -9.148438 11.082031 -7.699219 L 11.082031 0 Z M 14.679688 0 "/></g></g></g><g fill="#101010" fill-opacity="1"><g transform="translate(251.857551, 208.707891)"><g><path d="M 12.128906 -6.054688 L 12.128906 -6.945312 C 12.128906 -9.265625 11.507812 -10.445312 10.328125 -11.527344 C 9.402344 -12.378906 7.988281 -12.863281 6.75 -12.863281 C 3.558594 -12.863281 1.355469 -10.464844 1.355469 -7.175781 L 1.355469 -5.628906 C 1.355469 -3.808594 1.761719 -2.609375 2.765625 -1.507812 C 3.714844 -0.484375 5.144531 0.195312 6.867188 0.195312 C 9.128906 0.195312 10.871094 -1.003906 11.914062 -3.289062 L 11.546875 -3.460938 C 10.445312 -1.21875 8.957031 -0.210938 6.925781 -0.210938 C 5.414062 -0.210938 4.46875 -0.929688 4.023438 -2.050781 C 3.695312 -2.882812 3.65625 -3.945312 3.65625 -5.378906 L 3.65625 -6.054688 Z M 9.84375 -6.460938 L 3.65625 -6.460938 L 3.65625 -7.96875 C 3.65625 -9.824219 3.964844 -10.773438 4.566406 -11.449219 C 5.125 -12.089844 5.839844 -12.457031 6.75 -12.457031 C 7.738281 -12.457031 8.550781 -12.011719 9.050781 -11.316406 C 9.652344 -10.503906 9.84375 -9.632812 9.84375 -7.8125 Z M 9.84375 -6.460938 "/></g></g></g><g fill="#101010" fill-opacity="1"><g transform="translate(272.028243, 208.707891)"><g><path d="M 12.128906 -6.054688 L 12.128906 -6.945312 C 12.128906 -9.265625 11.507812 -10.445312 10.328125 -11.527344 C 9.402344 -12.378906 7.988281 -12.863281 6.75 -12.863281 C 3.558594 -12.863281 1.355469 -10.464844 1.355469 -7.175781 L 1.355469 -5.628906 C 1.355469 -3.808594 1.761719 -2.609375 2.765625 -1.507812 C 3.714844 -0.484375 5.144531 0.195312 6.867188 0.195312 C 9.128906 0.195312 10.871094 -1.003906 11.914062 -3.289062 L 11.546875 -3.460938 C 10.445312 -1.21875 8.957031 -0.210938 6.925781 -0.210938 C 5.414062 -0.210938 4.46875 -0.929688 4.023438 -2.050781 C 3.695312 -2.882812 3.65625 -3.945312 3.65625 -5.378906 L 3.65625 -6.054688 Z M 9.84375 -6.460938 L 3.65625 -6.460938 L 3.65625 -7.96875 C 3.65625 -9.824219 3.964844 -10.773438 4.566406 -11.449219 C 5.125 -12.089844 5.839844 -12.457031 6.75 -12.457031 C 7.738281 -12.457031 8.550781 -12.011719 9.050781 -11.316406 C 9.652344 -10.503906 9.84375 -9.632812 9.84375 -7.8125 Z M 9.84375 -6.460938 "/></g></g></g><g fill="#101010" fill-opacity="1"><g transform="translate(292.198934, 208.707891)"><g><path d="M 6.191406 0 L 6.191406 -0.40625 L 4.894531 -0.40625 L 4.894531 -17.796875 L 1.257812 -17.796875 L 1.257812 -17.390625 L 2.59375 -17.390625 L 2.59375 -0.40625 L 1.257812 -0.40625 L 1.257812 0 Z M 6.191406 0 "/></g></g></g><g fill="#101010" fill-opacity="1"><g transform="translate(305.563412, 208.707891)"><g><path d="M 8.589844 -9.882812 L 8.589844 -12.980469 L 8.183594 -12.980469 L 8.183594 -11.488281 C 7.71875 -12.359375 6.808594 -12.863281 5.609375 -12.863281 C 3.597656 -12.863281 1.933594 -11.179688 1.933594 -9.089844 C 1.933594 -4.429688 8.703125 -6.132812 8.703125 -2.804688 C 8.703125 -1.335938 7.40625 -0.210938 5.628906 -0.210938 C 3.636719 -0.210938 2.089844 -1.664062 1.933594 -3.695312 L 1.527344 -3.695312 L 1.527344 0.195312 L 1.933594 0.195312 L 1.933594 -1.933594 C 2.667969 -0.582031 4.023438 0.195312 5.609375 0.195312 C 7.988281 0.195312 9.863281 -1.625 9.863281 -3.886719 C 9.863281 -8.625 3.25 -6.828125 3.25 -10.15625 C 3.25 -11.429688 4.292969 -12.4375 5.6875 -12.4375 C 7.117188 -12.4375 8.085938 -11.46875 8.203125 -9.882812 Z M 8.589844 -9.882812 "/></g></g></g></svg>